<svg width="288" height="35" viewBox="0 0 288 35" fill="none" xmlns="http://www.w3.org/2000/svg">
<path fill-rule="evenodd" clip-rule="evenodd" d="M16.7661 0.588505C16.985 0.470498 17.2486 0.470498 17.4676 0.588505L33.8431 9.4145C34.1078 9.55713 34.2504 9.83783 34.2299 10.1194C34.231 10.1359 34.2315 10.1526 34.2315 10.1694V33.5362C34.2315 33.9445 33.9005 34.2754 33.4922 34.2754H25.1161C24.7078 34.2754 24.3768 33.9445 24.3768 33.5362C24.3768 33.1279 24.7078 32.7969 25.1161 32.7969H32.753V10.5066L17.1168 2.07911L1.47862 10.5077L1.47857 32.7969H16.5185L16.5186 29.2792L16.4917 29.278C11.4909 29.0505 7.6214 24.8122 7.84895 19.8114C8.01571 16.1444 10.3389 13.0873 13.535 11.8063C13.914 11.6543 14.3444 11.8384 14.4963 12.2174C14.6482 12.5964 14.4641 13.0268 14.0851 13.1787C11.4073 14.252 9.46546 16.8118 9.326 19.8785C9.13556 24.0636 12.3738 27.6106 16.5589 27.801C20.7438 27.9914 24.2909 24.7532 24.4813 20.5681C24.6236 17.4393 22.8496 14.6655 20.1932 13.3859C19.8254 13.2087 19.6708 12.7669 19.848 12.3991C20.0252 12.0312 20.467 11.8767 20.8349 12.0538C24.0059 13.5813 26.1285 16.8941 25.9584 20.6353C25.7541 25.1252 22.3166 28.7031 17.9972 29.2226L17.9971 33.5025C17.9971 33.8469 17.7617 34.1363 17.4429 34.2184C17.3552 34.2552 17.2588 34.2754 17.1577 34.2754H0.739286C0.33099 34.2754 0 33.9445 0 33.5362L4.34372e-05 10.1694C4.34372e-05 10.1475 0.000996298 10.1258 0.00286284 10.1044C-0.0115966 9.82789 0.130607 9.55459 0.390533 9.4145L16.7661 0.588505ZM16.4818 8.43705C16.4818 8.02649 16.8163 7.69194 17.2269 7.69194C17.6373 7.69194 17.9671 8.02649 17.9671 8.43705C17.9686 10.0558 17.9789 11.6746 17.9891 13.2934C17.9985 14.7709 18.0078 16.2483 18.0106 17.7258C18.0106 18.1593 17.6604 18.5094 17.2269 18.5094C16.7933 18.5094 16.4383 18.1593 16.4383 17.7258C16.4411 16.2562 16.4504 14.7866 16.4597 13.317C16.47 11.6903 16.4803 10.0636 16.4818 8.43705Z" fill="url(#paint0_linear_85_3055)"/>
<path fill-rule="evenodd" clip-rule="evenodd" d="M60.318 13.1139C59.8247 12.4726 59.1278 11.936 58.2275 11.5044C57.3271 11.0727 56.4206 10.8569 55.508 10.8569C54.9653 10.8569 54.4226 10.9247 53.88 11.0604C53.3373 11.196 52.844 11.4057 52.4 11.6894C51.956 11.973 51.5921 12.343 51.3084 12.7994C51.0248 13.2557 50.883 13.8046 50.883 14.4459C50.883 15.0379 51.0062 15.5436 51.253 15.9629C51.4996 16.3822 51.8388 16.7399 52.2704 17.0359C52.7021 17.3319 53.2263 17.591 53.843 17.813C54.4596 18.035 55.138 18.257 55.878 18.479C56.7166 18.7502 57.5861 19.0586 58.4865 19.404C59.3868 19.7492 60.2131 20.2056 60.9655 20.773C61.7179 21.3402 62.3345 22.0556 62.8155 22.919C63.2965 23.7822 63.537 24.8552 63.537 26.138C63.537 27.544 63.278 28.771 62.76 29.8194C62.242 30.8678 61.5513 31.7372 60.688 32.428C59.8247 33.1186 58.8133 33.6366 57.654 33.982C56.4946 34.3272 55.2736 34.5 53.991 34.5C52.289 34.5 50.624 34.1854 48.996 33.5564C47.368 32.9274 46.036 31.9962 45 30.763L48.33 27.655C48.9712 28.543 49.8284 29.246 50.9014 29.764C51.9744 30.282 53.029 30.541 54.065 30.541C54.6076 30.541 55.1626 30.473 55.73 30.3374C56.2973 30.2018 56.8091 29.9736 57.2655 29.653C57.7218 29.3322 58.0918 28.9314 58.3755 28.4504C58.6591 27.9694 58.801 27.3712 58.801 26.656C58.801 25.9652 58.6406 25.3918 58.32 24.9354C57.9993 24.479 57.5676 24.0844 57.025 23.7514C56.4823 23.4184 55.841 23.1286 55.101 22.882C54.361 22.6352 53.584 22.3762 52.77 22.105C51.9806 21.8582 51.1912 21.5622 50.402 21.217C49.6126 20.8716 48.9034 20.4152 48.2744 19.848C47.6454 19.2806 47.1336 18.5838 46.739 17.7574C46.3442 16.931 46.147 15.9012 46.147 14.6679C46.147 13.3359 46.4244 12.1889 46.9794 11.2269C47.5344 10.2649 48.262 9.46935 49.1624 8.84035C50.0628 8.21135 51.0864 7.74273 52.2334 7.43435C53.3804 7.12596 54.546 6.97192 55.73 6.97192C57.062 6.97192 58.4125 7.20615 59.7815 7.67493C61.1505 8.14354 62.3407 8.84654 63.352 9.78393L60.318 13.1139ZM68.1416 7.6442H75.4306L82.2387 26.2552H82.3497L89.0837 7.6442H96.4097V33.8403H91.7847V12.7872H91.7107L83.7557 33.8403H80.4997L72.6556 12.7872H72.5816V33.8403H68.1416V7.6442ZM114.536 7.6442H110.503L99.1071 33.8403H104.324L106.692 27.8463H118.051L120.493 33.8403H125.821L114.536 7.6442ZM112.39 13.1942L116.423 23.8502H108.283L112.39 13.1942ZM128.438 7.6442H137.54C138.773 7.6442 139.969 7.77363 141.129 8.03263C142.288 8.29163 143.318 8.71721 144.218 9.30921C145.119 9.90121 145.84 10.6782 146.382 11.6402C146.925 12.6022 147.196 13.7738 147.196 15.1552C147.196 17.0545 146.661 18.6023 145.587 19.7987C144.514 20.995 143.053 21.8029 141.203 22.2222L148.196 33.8403H142.572L136.504 22.7402H133.1V33.8403H128.438V7.6442ZM136.911 18.9292C137.577 18.9292 138.243 18.8798 138.909 18.7812C139.575 18.6825 140.173 18.4975 140.703 18.2262C141.234 17.9548 141.671 17.5663 142.017 17.0607C142.362 16.555 142.535 15.9075 142.535 15.1182C142.535 14.4028 142.374 13.817 142.054 13.3606C141.733 12.9043 141.326 12.5404 140.833 12.2692C140.339 11.9978 139.778 11.8128 139.149 11.7142C138.52 11.6154 137.91 11.5662 137.318 11.5662H133.1V18.9292H136.911ZM148.892 11.7142H156.922V33.8403H161.583V11.7142H169.612V7.6442H148.892V11.7142ZM172.635 7.6442H181.738C182.97 7.6442 184.167 7.77363 185.327 8.03263C186.486 8.29163 187.516 8.71721 188.417 9.30921C189.316 9.90121 190.037 10.6782 190.581 11.6402C191.123 12.6022 191.395 13.7738 191.395 15.1552C191.395 17.0545 190.858 18.6023 189.785 19.7987C188.712 20.995 187.251 21.8029 185.401 22.2222L192.394 33.8403H186.769L180.701 22.7402H177.298V33.8403H172.635V7.6442ZM181.108 18.9292C181.775 18.9292 182.441 18.8798 183.107 18.7812C183.772 18.6825 184.371 18.4975 184.901 18.2262C185.432 17.9548 185.868 17.5663 186.215 17.0607C186.56 16.555 186.732 15.9075 186.732 15.1182C186.732 14.4028 186.573 13.817 186.251 13.3606C185.93 12.9043 185.523 12.5404 185.031 12.2692C184.537 11.9978 183.977 11.8128 183.346 11.7142C182.718 11.6154 182.108 11.5662 181.515 11.5662H177.298V18.9292H181.108ZM195.794 14.9824C195.091 16.672 194.739 18.5652 194.739 20.662C194.739 22.7092 195.091 24.5778 195.794 26.2674C196.497 27.957 197.47 29.4124 198.717 30.6334C199.963 31.8544 201.443 32.804 203.157 33.4824C204.87 34.1608 206.739 34.5 208.762 34.5C210.809 34.5 212.696 34.1608 214.424 33.4824C216.15 32.804 217.642 31.8544 218.899 30.6334C220.158 29.4124 221.138 27.957 221.842 26.2674C222.545 24.5778 222.897 22.7092 222.897 20.662C222.897 18.5652 222.545 16.672 221.842 14.9824C221.138 13.2928 220.158 11.8559 218.899 10.6719C217.642 9.48794 216.15 8.57516 214.424 7.93393C212.696 7.29255 210.809 6.97193 208.762 6.97193C206.739 6.97193 204.87 7.29255 203.157 7.93393C201.443 8.57516 199.963 9.48794 198.717 10.6719C197.47 11.8559 196.497 13.2928 195.794 14.9824ZM200.455 24.5284C200.023 23.3568 199.808 22.068 199.808 20.662C199.808 19.3052 200.023 18.0472 200.455 16.888C200.887 15.7286 201.497 14.7172 202.286 13.8539C203.076 12.9906 204.02 12.3122 205.118 11.8189C206.216 11.3256 207.442 11.0789 208.799 11.0789C210.156 11.0789 211.389 11.3256 212.499 11.8189C213.609 12.3122 214.558 12.9906 215.348 13.8539C216.138 14.7172 216.747 15.7286 217.179 16.888C217.611 18.0472 217.827 19.3052 217.827 20.662C217.827 22.068 217.611 23.3568 217.179 24.5284C216.747 25.7 216.131 26.7176 215.329 27.581C214.527 28.4442 213.572 29.1164 212.462 29.5974C211.352 30.0784 210.131 30.319 208.799 30.319C207.466 30.319 206.253 30.0784 205.155 29.5974C204.058 29.1164 203.107 28.4442 202.305 27.581C201.503 26.7176 200.887 25.7 200.455 24.5284ZM226.125 20.662C226.125 18.5652 226.476 16.672 227.179 14.9824C227.882 13.2928 228.856 11.8559 230.102 10.6719C231.348 9.48794 232.828 8.57516 234.542 7.93393C236.256 7.29255 238.124 6.97193 240.148 6.97193C242.194 6.97193 244.081 7.29255 245.809 7.93393C247.535 8.57516 249.028 9.48794 250.286 10.6719C251.543 11.8559 252.525 13.2928 253.228 14.9824C253.931 16.672 254.282 18.5652 254.282 20.662C254.282 22.7092 253.931 24.5778 253.228 26.2674C252.525 27.957 251.543 29.4124 250.286 30.6334C249.028 31.8544 247.535 32.804 245.809 33.4824C244.081 34.1608 242.194 34.5 240.148 34.5C238.124 34.5 236.256 34.1608 234.542 33.4824C232.828 32.804 231.348 31.8544 230.102 30.6334C228.856 29.4124 227.882 27.957 227.179 26.2674C226.476 24.5778 226.125 22.7092 226.125 20.662ZM231.193 20.662C231.193 22.068 231.41 23.3568 231.84 24.5284C232.272 25.7 232.89 26.7176 233.69 27.581C234.492 28.4442 235.443 29.1164 236.541 29.5974C237.638 30.0784 238.852 30.319 240.185 30.319C241.516 30.319 242.738 30.0784 243.848 29.5974C244.958 29.1164 245.913 28.4442 246.715 27.581C247.517 26.7176 248.133 25.7 248.565 24.5284C248.997 23.3568 249.212 22.068 249.212 20.662C249.212 19.3052 248.997 18.0472 248.565 16.888C248.133 15.7286 247.523 14.7172 246.733 13.8539C245.944 12.9906 244.995 12.3122 243.885 11.8189C242.775 11.3256 241.541 11.0789 240.185 11.0789C238.829 11.0789 237.601 11.3256 236.503 11.8189C235.406 12.3122 234.461 12.9906 233.672 13.8539C232.884 14.7172 232.272 15.7286 231.84 16.888C231.41 18.0472 231.193 19.3052 231.193 20.662ZM266.046 7.6442H258.758V33.8403H263.198V12.7872H263.27L271.115 33.8403H274.37L282.326 12.7872H282.4V33.8403H287.025V7.6442H279.699L272.965 26.2552H272.853L266.046 7.6442Z" fill="url(#paint1_linear_85_3055)"/>
<defs>
<linearGradient id="paint0_linear_85_3055" x1="-0.0625688" y1="34.3396" x2="34" y2="9" gradientUnits="userSpaceOnUse">
<stop stop-color="#254695"/>
<stop offset="1" stop-color="#D04644"/>
</linearGradient>
<linearGradient id="paint1_linear_85_3055" x1="45.2007" y1="32" x2="55.2212" y2="-22.1731" gradientUnits="userSpaceOnUse">
<stop offset="0.192996" stop-color="#1E25D2"/>
<stop offset="1" stop-color="#D04644"/>
</linearGradient>
</defs>
</svg>
