<svg width="205" height="72" viewBox="0 0 205 72" fill="none" xmlns="http://www.w3.org/2000/svg">
<path fill-rule="evenodd" clip-rule="evenodd" d="M33.0031 11.8897C25.5112 21.5611 23.5069 32.8087 26.6204 41.6433C27.3598 43.7449 28.1771 45.1849 29.3836 46.6833C29.0334 46.8195 28.7025 46.9362 28.3523 47.0724C24.9274 48.3179 20.8215 49.3881 17.1436 49.2908C16.1901 49.2714 14.9447 49.1351 13.8744 48.7654C10.2939 36.3308 18.8755 17.9806 33.8593 10.9557L33.0031 11.8897ZM32.7112 50.2638C33.0809 50.6335 33.4896 51.0227 33.8982 51.4508C35.4355 52.9881 36.8366 54.6422 37.4593 56.2184C38.4128 58.5924 37.6539 60.986 33.5285 61.0249C30.162 61.0833 27.2431 60.6551 24.7717 59.8573C21.522 58.8065 19.0117 57.1135 17.1436 54.9535C20.588 54.6811 24.1685 53.7081 27.3015 52.56C28.2939 52.2097 29.2863 51.8206 30.2593 51.3924C31.0766 51.0422 31.8939 50.6724 32.7112 50.2638Z" fill="#E31E24"/>
<path fill-rule="evenodd" clip-rule="evenodd" d="M33.6067 12.5319C27.9246 21.3276 34.9105 31.3298 39.9311 38.2573C30.9213 35.3773 31.8943 29.7146 29.637 23.4876C28.8002 29.7535 29.9678 39.1525 34.8327 44.2119C37.9462 42.5968 40.943 40.6508 43.6284 38.4908C44.4651 37.8098 45.3602 37.0314 46.2165 36.1946C45.8467 35.5719 45.3992 34.9298 44.9127 34.2876C42.4608 31.0768 36.5451 23.4487 35.8446 22.0476C34.5019 19.4595 32.8284 15.4508 33.6067 12.5319ZM38.5689 47.0335C40.7484 48.5708 43.3948 50.8281 43.4727 51.9957C43.5505 53.4357 43.5505 56.3741 43.5505 56.3741C47.0338 50.3416 49.6024 45.3016 47.8121 39.6195C46.8392 40.6314 45.8467 41.5654 44.9321 42.3633C42.9667 44.0562 40.8067 45.613 38.5689 47.0335Z" fill="#364D9A"/>
<path fill-rule="evenodd" clip-rule="evenodd" d="M51.7616 30.4736C51.7421 30.8433 51.6838 31.252 51.5865 31.6606C50.0492 38.2963 39.0156 47.2476 26.9702 51.626C14.9054 56.0238 6.38214 54.1947 7.91943 47.559C8.38646 45.5547 9.72916 43.3168 11.6946 41.079C11.0913 42.1298 10.6632 43.1417 10.4297 44.0952C8.95079 50.4584 17.1432 52.2098 28.7021 48.0065C39.3075 44.1341 49.0762 36.6033 51.7616 30.4736Z" fill="#364D9A"/>
<path d="M81.9639 51.587H85.5639V56.5687H84.6104V52.4627H82.9368V56.5687H81.9639V51.587Z" fill="#9D9E9E"/>
<path d="M89.046 51.4508C89.7466 51.4508 90.3498 51.7038 90.8558 52.2292C91.3812 52.7351 91.6342 53.3578 91.6342 54.0778C91.6342 54.8173 91.3812 55.44 90.8752 55.9265C90.3693 56.4324 89.766 56.6854 89.046 56.6854C88.3066 56.6854 87.6839 56.4324 87.1974 55.907C86.6914 55.4011 86.4385 54.7784 86.4385 54.0778C86.4385 53.5913 86.5552 53.1632 86.7887 52.7546C87.0223 52.3654 87.3336 52.0346 87.7423 51.8011C88.1509 51.5676 88.579 51.4508 89.046 51.4508ZM89.0266 52.3849C88.579 52.3849 88.1898 52.5405 87.8785 52.8713C87.5671 53.1827 87.4114 53.5913 87.4114 54.0973C87.4114 54.6422 87.606 55.0703 87.9952 55.4011C88.3066 55.654 88.6569 55.7708 89.046 55.7708C89.4936 55.7708 89.8828 55.6151 90.1942 55.2843C90.5055 54.9535 90.6612 54.5643 90.6612 54.0778C90.6612 53.6108 90.5055 53.2022 90.1942 52.8713C89.8828 52.5405 89.4936 52.3849 89.0266 52.3849Z" fill="#9D9E9E"/>
<path d="M94.7275 54.3503L94.5913 54.2141L93.1902 56.5687H92.0615L93.9102 53.6692L92.2367 51.587H93.3653L94.7275 53.3578V51.587H95.7004V53.3578L97.0431 51.587H98.1718L96.5177 53.6692L98.3469 56.5687H97.2183L95.8172 54.2141L95.7004 54.3503V56.5687H94.7275V54.3503Z" fill="#9D9E9E"/>
<path d="M100.547 51.587H101.5L103.407 56.5687H102.434L102.045 55.5373H100.002L99.5931 56.5687H98.6201L100.547 51.587ZM101.014 52.9103L100.352 54.6227H101.695L101.014 52.9103Z" fill="#9D9E9E"/>
<path d="M104.146 51.587H105.158C105.703 51.587 106.092 51.626 106.326 51.7233C106.579 51.84 106.754 51.9957 106.91 52.2097C107.046 52.4433 107.104 52.7157 107.104 53.027C107.104 53.3773 107.026 53.6692 106.832 53.9027C106.657 54.1168 106.404 54.2919 106.092 54.3697C105.917 54.4281 105.567 54.4476 105.081 54.4476V56.5687H104.146V51.587ZM105.081 53.533H105.392C105.625 53.533 105.801 53.5135 105.898 53.4746C105.995 53.4357 106.054 53.3968 106.112 53.3189C106.17 53.2411 106.19 53.1438 106.19 53.027C106.19 52.8324 106.112 52.6962 105.976 52.5989C105.859 52.5405 105.664 52.5016 105.353 52.5016H105.081V53.533Z" fill="#9D9E9E"/>
<path d="M108.038 51.587H108.992V53.4551H110.665V51.587H111.619V56.5687H110.665V54.3697H108.992V56.5687H108.038V51.587Z" fill="#9D9E9E"/>
<path d="M114.286 51.587H115.239L117.166 56.5687H116.173L115.784 55.5373H113.741L113.352 56.5687H112.359L114.286 51.587ZM114.772 52.9103L114.091 54.6227H115.434L114.772 52.9103Z" fill="#9D9E9E"/>
<path d="M120.825 51.587V56.5687H119.891V54.5449H119.658L118.646 56.5687H117.614L118.743 54.3892C118.081 54.2141 117.75 53.7665 117.75 53.0854C117.75 52.8519 117.789 52.6378 117.867 52.4627C117.926 52.2681 118.023 52.1319 118.159 51.9957C118.276 51.8789 118.432 51.7816 118.607 51.7233C118.762 51.6649 118.899 51.626 118.996 51.626C119.093 51.6065 119.366 51.587 119.833 51.587H120.825ZM119.891 53.6303V52.5016H119.638C119.385 52.5016 119.229 52.5211 119.113 52.56C119.015 52.5795 118.918 52.6378 118.86 52.7351C118.801 52.8324 118.762 52.9492 118.762 53.0854C118.762 53.28 118.821 53.4357 118.957 53.5135C119.093 53.5914 119.307 53.6303 119.599 53.6303H119.891Z" fill="#9D9E9E"/>
<path d="M123.898 56.5687V51.587H126.506V52.5016H124.852V53.4551H125.066C125.475 53.4551 125.825 53.5135 126.097 53.5914C126.35 53.6887 126.584 53.8638 126.759 54.1168C126.934 54.3892 127.031 54.6811 127.031 55.0314C127.031 55.3816 126.954 55.6541 126.837 55.8681C126.701 56.0627 126.506 56.2378 126.272 56.3741C126.039 56.4908 125.708 56.5687 125.3 56.5687H123.898ZM124.852 54.3114V55.6541H125.085C125.533 55.6541 125.805 55.5957 125.922 55.4984C126.039 55.3816 126.097 55.226 126.097 55.0314C126.097 54.5449 125.747 54.3114 125.047 54.3114H124.852Z" fill="#9D9E9E"/>
<path d="M127.868 51.587H130.592V52.5016H128.802V53.3968H130.592V54.3308H128.802V55.6346H130.592V56.5687H127.868V51.587Z" fill="#9D9E9E"/>
<path d="M131.7 55.2649C131.953 55.6151 132.245 55.7903 132.596 55.7903C132.81 55.7903 133.004 55.7319 133.14 55.5957C133.277 55.4789 133.335 55.3038 133.335 55.0897C133.335 54.8951 133.277 54.72 133.14 54.5838C133.004 54.4476 132.732 54.3697 132.304 54.3697H132.09V53.533H132.304C132.557 53.533 132.732 53.4746 132.868 53.3578C133.004 53.2411 133.063 53.0854 133.063 52.8908C133.063 52.7157 133.004 52.5795 132.907 52.4627C132.79 52.3654 132.654 52.307 132.479 52.307C132.265 52.307 132.031 52.4238 131.817 52.6378L131.253 52.0151C131.564 51.7427 131.817 51.5676 132.012 51.5286C132.206 51.4703 132.401 51.4508 132.576 51.4508C132.965 51.4508 133.316 51.5676 133.588 51.8011C133.86 52.0346 134.016 52.3459 134.016 52.7546C134.016 52.9297 133.977 53.1049 133.919 53.28C133.86 53.4551 133.685 53.6303 133.393 53.8249C133.977 54.0778 134.269 54.5254 134.269 55.1481C134.269 55.6151 134.113 55.9849 133.802 56.2573C133.491 56.5492 133.102 56.6854 132.615 56.6854C132.304 56.6854 132.031 56.627 131.778 56.5297C131.525 56.413 131.272 56.16 130.98 55.7903L131.7 55.2649Z" fill="#9D9E9E"/>
<path d="M137.52 51.4508C138.24 51.4508 138.843 51.7038 139.349 52.2292C139.855 52.7351 140.108 53.3578 140.108 54.0778C140.108 54.8173 139.855 55.44 139.349 55.9265C138.862 56.4324 138.24 56.6854 137.539 56.6854C136.78 56.6854 136.158 56.4324 135.671 55.907C135.165 55.4011 134.932 54.7784 134.932 54.0778C134.932 53.5913 135.048 53.1632 135.282 52.7546C135.496 52.3654 135.827 52.0346 136.216 51.8011C136.625 51.5676 137.053 51.4508 137.52 51.4508ZM137.52 52.3849C137.053 52.3849 136.664 52.5405 136.352 52.8713C136.041 53.1827 135.885 53.5913 135.885 54.0973C135.885 54.6422 136.08 55.0703 136.469 55.4011C136.78 55.654 137.131 55.7708 137.539 55.7708C137.987 55.7708 138.357 55.6151 138.668 55.2843C138.999 54.9535 139.154 54.5643 139.154 54.0778C139.154 53.6108 138.979 53.2022 138.668 52.8713C138.357 52.5405 137.967 52.3849 137.52 52.3849Z" fill="#9D9E9E"/>
<path d="M141.003 51.587H144.583V56.5687H143.63V52.4627H141.956V56.5687H141.003V51.587Z" fill="#9D9E9E"/>
<path d="M147.249 51.587H148.202L150.129 56.5687H149.136L148.747 55.5373H146.704L146.315 56.5687H145.322L147.249 51.587ZM147.735 52.9103L147.054 54.6227H148.397L147.735 52.9103Z" fill="#9D9E9E"/>
<path d="M155.443 52.4627L154.782 53.0854C154.334 52.6184 153.828 52.3654 153.244 52.3654C152.777 52.3654 152.369 52.5405 152.057 52.8519C151.726 53.1827 151.551 53.5913 151.551 54.0584C151.551 54.3892 151.629 54.6811 151.785 54.9535C151.921 55.2065 152.116 55.4011 152.388 55.5568C152.66 55.693 152.952 55.7708 153.264 55.7708C153.556 55.7708 153.789 55.7124 154.023 55.6151C154.256 55.5178 154.509 55.3232 154.782 55.0508L155.424 55.7319C155.054 56.0822 154.704 56.3351 154.373 56.4713C154.062 56.627 153.672 56.6854 153.264 56.6854C152.485 56.6854 151.843 56.4519 151.357 55.9459C150.851 55.4595 150.617 54.8368 150.617 54.0584C150.617 53.5719 150.734 53.1243 150.948 52.7351C151.182 52.3459 151.493 52.0346 151.921 51.8011C152.33 51.5676 152.797 51.4508 153.264 51.4508C153.692 51.4508 154.081 51.5481 154.451 51.7232C154.84 51.8984 155.171 52.1319 155.443 52.4627Z" fill="#9D9E9E"/>
<path d="M156.259 51.587H157.232V53.4551H158.905V51.587H159.859V56.5687H158.905V54.3697H157.232V56.5687H156.259V51.587Z" fill="#9D9E9E"/>
<path d="M163.343 51.4508C164.044 51.4508 164.666 51.7038 165.172 52.2292C165.678 52.7351 165.931 53.3578 165.931 54.0778C165.931 54.8173 165.678 55.44 165.172 55.9265C164.666 56.4324 164.063 56.6854 163.362 56.6854C162.604 56.6854 161.981 56.4324 161.494 55.907C160.988 55.4011 160.755 54.7784 160.755 54.0778C160.755 53.5913 160.872 53.1632 161.086 52.7546C161.319 52.3654 161.65 52.0346 162.039 51.8011C162.448 51.5676 162.876 51.4508 163.343 51.4508ZM163.324 52.3849C162.876 52.3849 162.487 52.5405 162.175 52.8713C161.864 53.1827 161.708 53.5913 161.708 54.0973C161.708 54.6422 161.903 55.0703 162.292 55.4011C162.604 55.654 162.954 55.7708 163.343 55.7708C163.791 55.7708 164.18 55.6151 164.491 55.2843C164.802 54.9535 164.958 54.5643 164.958 54.0778C164.958 53.6108 164.802 53.2022 164.491 52.8713C164.18 52.5405 163.791 52.3849 163.324 52.3849Z" fill="#9D9E9E"/>
<path d="M171.398 52.4627L170.737 53.0854C170.289 52.6184 169.783 52.3654 169.219 52.3654C168.732 52.3654 168.343 52.5405 168.012 52.8519C167.681 53.1827 167.526 53.5913 167.526 54.0584C167.526 54.3892 167.584 54.6811 167.74 54.9535C167.876 55.2065 168.09 55.4011 168.343 55.5568C168.616 55.693 168.907 55.7708 169.238 55.7708C169.511 55.7708 169.764 55.7124 169.997 55.6151C170.211 55.5178 170.464 55.3232 170.737 55.0508L171.379 55.7319C171.009 56.0822 170.678 56.3351 170.347 56.4713C170.017 56.627 169.647 56.6854 169.219 56.6854C168.44 56.6854 167.818 56.4519 167.312 55.9459C166.825 55.4595 166.572 54.8368 166.572 54.0584C166.572 53.5719 166.689 53.1243 166.923 52.7351C167.137 52.3459 167.467 52.0346 167.876 51.8011C168.304 51.5676 168.752 51.4508 169.238 51.4508C169.647 51.4508 170.036 51.5481 170.425 51.7232C170.795 51.8984 171.126 52.1319 171.398 52.4627Z" fill="#9D9E9E"/>
<path d="M171.749 51.587H174.512V52.5211H173.598V56.5687H172.644V52.5211H171.749V51.587Z" fill="#9D9E9E"/>
<path d="M175.154 56.5687V51.587H176.088V53.4551H176.302C176.692 53.4551 177.022 53.5135 177.295 53.5914C177.548 53.6887 177.781 53.8638 177.976 54.1168C178.171 54.3697 178.268 54.6811 178.268 55.0508C178.268 55.3816 178.19 55.6735 178.015 55.907C177.859 56.16 177.665 56.3157 177.451 56.413C177.217 56.5103 176.925 56.5687 176.536 56.5687H175.154ZM176.088 54.3114V55.6541H176.322C176.731 55.6541 176.983 55.6151 177.12 55.5178C177.256 55.4205 177.334 55.2454 177.334 55.0119C177.334 54.5449 176.983 54.3114 176.283 54.3114H176.088Z" fill="#9D9E9E"/>
<path d="M72.0785 45.1265H62.6602V42.6552L67.2526 28.2941H62.952V25.7838H71.7477V28.333L67.1942 42.6357H72.0785V45.1265Z" fill="#364D9A"/>
<path d="M82.254 45.1265H78.0702V35.8444H76.9416V45.1265H72.7578V25.7838H76.9416V33.4898H78.0702V25.7838H82.254V45.1265Z" fill="#364D9A"/>
<path d="M87.2376 45.1265H83.0732V25.7838H87.2376V45.1265Z" fill="#364D9A"/>
<path d="M97.2006 45.1264H95.2157L94.6708 44.0562C93.7562 44.8735 92.7833 45.2821 91.7714 45.2821C90.7595 45.2821 89.9033 45.0291 89.1443 44.5037C88.4049 43.9783 88.0352 43.1416 88.0352 41.9935V29.3837C88.0352 26.8735 89.6114 25.6281 92.7443 25.6281C95.7216 25.6281 97.2006 26.7567 97.2006 29.0529V32.6335H93.406V28.7416C93.406 28.4302 93.2114 28.2745 92.8222 28.2745C92.4135 28.2745 92.2189 28.4302 92.2189 28.7416V42.1102C92.2189 42.4216 92.4135 42.5772 92.8222 42.5772C93.2114 42.5772 93.406 42.4216 93.406 42.1102V38.4908H92.5887V35.5329H97.2006V45.1264Z" fill="#364D9A"/>
<path d="M106.268 45.1265H98.1143V25.7838H106.229V28.2746H102.279V33.4898H105.84V35.8444H102.279V42.6357H106.268V45.1265Z" fill="#364D9A"/>
<path d="M117.243 45.146H113.079C112.632 44.6011 112.418 43.0444 112.418 40.4757V40.4562L112.437 39.2887C112.456 37.693 112.456 36.8562 112.456 36.8368C112.456 36.1752 112.048 35.8444 111.192 35.8444V45.1265H107.008V25.7838H112.165C113.332 25.7838 114.363 26.0757 115.22 26.6206C116.095 27.1654 116.543 28.0217 116.543 29.2087V31.5244C116.543 33.0227 115.667 34.0346 113.955 34.5795C115.667 34.9881 116.543 36.0584 116.543 37.7708L116.485 39.8919C116.485 42.986 116.738 44.7373 117.243 45.146ZM112.456 32.4779V29.2865C112.456 28.6054 112.048 28.2746 111.192 28.2746V33.4898C112.048 33.4898 112.456 33.1589 112.456 32.4779Z" fill="#364D9A"/>
<path d="M123.256 38.2379H117.866V36.0584H123.256V38.2379Z" fill="#364D9A"/>
<path d="M123.917 41.8183V29.3837C123.917 26.8735 125.513 25.6281 128.704 25.6281C131.837 25.6281 133.413 26.8735 133.413 29.3448V41.7794C133.413 42.9081 132.966 43.7643 132.09 44.387C131.214 44.9902 130.086 45.2821 128.665 45.2821C125.493 45.2821 123.917 44.134 123.917 41.8183ZM129.346 41.9935V28.8583C129.346 28.4691 129.113 28.2745 128.685 28.2745C128.218 28.2745 127.984 28.4691 127.984 28.8583V41.9935C127.984 42.3826 128.218 42.5772 128.685 42.5772C129.113 42.5772 129.346 42.3826 129.346 41.9935Z" fill="#364D9A"/>
<path d="M144.583 45.146H140.439C139.991 44.6011 139.757 43.0444 139.757 40.4757V40.4562L139.777 39.2887C139.796 37.693 139.816 36.8562 139.816 36.8368C139.816 36.1752 139.388 35.8444 138.532 35.8444V45.1265H134.367V25.7838H139.504C140.692 25.7838 141.703 26.0757 142.579 26.6206C143.455 27.1654 143.883 28.0217 143.883 29.2087V31.5244C143.883 33.0227 143.027 34.0346 141.295 34.5795C143.027 34.9881 143.883 36.0584 143.883 37.7708L143.824 39.8919C143.824 42.986 144.077 44.7373 144.583 45.146ZM139.816 32.4779V29.2865C139.816 28.6054 139.388 28.2746 138.532 28.2746V33.4898C139.388 33.4898 139.816 33.1589 139.816 32.4779Z" fill="#364D9A"/>
<path d="M153.048 45.1265H145.226V25.7838H149.409V42.6357H153.048V45.1265Z" fill="#364D9A"/>
<path d="M161.864 45.1265H153.691V25.7838H161.806V28.2746H157.875V33.4898H161.436V35.8444H157.875V42.6357H161.864V45.1265Z" fill="#364D9A"/>
<path d="M162.524 25.7838H166.708V41.9935C166.708 42.3827 166.942 42.5773 167.409 42.5773C167.856 42.5773 168.09 42.3827 168.09 41.9935V25.7838H172.254V41.7795C172.254 42.9081 171.807 43.7644 170.892 44.3676C169.997 44.9903 168.829 45.2822 167.409 45.2822C166.085 45.2822 164.937 45.0098 163.964 44.4649C163.011 43.92 162.524 43.0249 162.524 41.8184V25.7838Z" fill="#364D9A"/>
<path d="M176.556 45.1265H173.111V42.3049H176.556V45.1265Z" fill="#364D9A"/>
<path d="M187.764 45.1265H183.172L181.576 37.9654V45.1265H177.393V25.7838H181.576V32.2249L183.386 25.7838H187.278L184.69 34.5989L187.764 45.1265Z" fill="#364D9A"/>
<path d="M197.573 45.1265H188.154V42.6552L192.747 28.2941H188.446V25.7838H197.242V28.333L192.688 42.6357H197.573V45.1265Z" fill="#364D9A"/>
</svg>
